<?xml version="1.0" encoding="UTF-8" standalone="no"?>
<svg width="235px" height="42px" viewBox="0 0 235 42" version="1.1" xmlns="http://www.w3.org/2000/svg" xmlns:xlink="http://www.w3.org/1999/xlink">
    <!-- Generator: Sketch 3.6.1 (26313) - http://www.bohemiancoding.com/sketch -->
    <title>logo</title>
    <desc>Created with Sketch.</desc>
    <defs></defs>
    <g id="Page-1" stroke="none" stroke-width="1" fill="none" fill-rule="evenodd">
        <g id="Mojito" transform="translate(-569.000000, -82.000000)">
            <g id="HEADER" transform="translate(-2.000000, -141.000000)">
                <g id="logo" transform="translate(571.000000, 223.000000)">
                    <path d="M2.18515201,32.5397461 L2.18515201,41.4 L0.348921795,41.4 L0.348921795,19.6453125 L7.75355748,19.6453125 C10.0127789,19.6453125 11.7967408,20.2230411 13.1054968,21.3785156 C14.4142528,22.5339902 15.068621,24.1227438 15.068621,26.1448242 C15.068621,28.1868266 14.4391337,29.7631292 13.1801403,30.8737793 C11.9211469,31.9844294 10.0973755,32.5397461 7.70877137,32.5397461 L2.18515201,32.5397461 Z M2.18515201,30.9858398 L7.75355748,30.9858398 C9.53505803,30.9858398 10.8935562,30.5625042 11.8290928,29.7158203 C12.7646294,28.8691364 13.2323907,27.6887771 13.2323907,26.174707 C13.2323907,24.6705979 12.7671175,23.4728072 11.8365572,22.5812988 C10.9059968,21.6897905 9.58482002,21.2340821 7.87298709,21.2141602 L2.18515201,21.2141602 L2.18515201,30.9858398 Z M41.7226845,31.7030273 C41.7226845,33.7051858 41.3768398,35.4632737 40.6851398,36.9773437 C39.9934399,38.4914138 39.0056674,39.6568319 37.7217927,40.4736328 C36.437918,41.2904338 34.9550152,41.6988281 33.2730398,41.6988281 C30.7351479,41.6988281 28.6849602,40.7899017 27.122415,38.9720215 C25.5598698,37.1541413 24.7786089,34.701285 24.7786089,31.6133789 L24.7786089,29.372168 C24.7786089,27.3899315 25.1294299,25.6343338 25.8310824,24.1053223 C26.5327348,22.5763107 27.5254835,21.4009318 28.8093582,20.5791504 C30.0932329,19.7573689 31.5711595,19.3464844 33.2431824,19.3464844 C34.9152053,19.3464844 36.3906438,19.7498983 37.6695422,20.5567383 C38.9484407,21.3635783 39.9362132,22.5040942 40.6328894,23.9783203 C41.3295656,25.4525464 41.692827,27.1608301 41.7226845,29.1032227 L41.7226845,31.7030273 Z M39.8864543,29.3422852 C39.8864543,26.7225455 39.2942884,24.6706129 38.1099389,23.1864258 C36.9255894,21.7022387 35.3033534,20.9601562 33.2431824,20.9601562 C31.2228214,20.9601562 29.6130259,21.7047289 28.4137476,23.1938965 C27.2144693,24.6830641 26.6148392,26.762389 26.6148392,29.4319336 L26.6148392,31.7030273 C26.6148392,34.2829231 27.2119812,36.327385 28.4062833,37.8364746 C29.6005853,39.3455642 31.2228213,40.1000977 33.2730398,40.1000977 C35.3531159,40.1000977 36.9753518,39.355525 38.1397963,37.8663574 C39.3042408,36.3771898 39.8864543,34.3028453 39.8864543,31.6432617 L39.8864543,29.3422852 Z M54.6871293,39.8460937 L65.4208653,39.8460937 L65.4208653,41.4 L52.8359704,41.4 L52.8359704,19.6453125 L54.6871293,19.6453125 L54.6871293,39.8460937 Z M109.210043,34.6166016 C108.96123,36.9076286 108.142648,38.6607361 106.754272,39.8759766 C105.365896,41.091217 103.517243,41.6988281 101.208259,41.6988281 C99.5959515,41.6988281 98.1702748,41.2954142 96.9311864,40.4885742 C95.692098,39.6817342 94.7341826,38.5387281 94.0574115,37.0595215 C93.3806403,35.5803149 93.0372836,33.8894626 93.0273311,31.9869141 L93.0273311,29.1629883 C93.0273311,27.2305567 93.3657116,25.5172926 94.0424828,24.0231445 C94.7192539,22.5289964 95.6920979,21.3760294 96.9610438,20.564209 C98.2299897,19.7523885 99.6904997,19.3464844 101.342618,19.3464844 C103.671507,19.3464844 105.510206,19.9765074 106.858773,21.2365723 C108.207339,22.4966372 108.991088,24.2372936 109.210043,26.4585937 L107.358884,26.4585937 C106.901068,22.7630675 104.895666,20.915332 101.342618,20.915332 C99.3720192,20.915332 97.8020331,21.652434 96.6326124,23.1266602 C95.4631916,24.6008863 94.87849,26.6378776 94.87849,29.2376953 L94.87849,31.8972656 C94.87849,34.4074344 95.4482631,36.4095628 96.5878263,37.9037109 C97.7273895,39.397859 99.2675184,40.1449219 101.208259,40.1449219 C103.129095,40.1449219 104.577165,39.6842331 105.552511,38.7628418 C106.527858,37.8414505 107.129976,36.4593842 107.358884,34.6166016 L109.210043,34.6166016 Z M136.222395,31.7030273 C136.222395,33.7051858 135.876551,35.4632737 135.184851,36.9773437 C134.493151,38.4914138 133.505378,39.6568319 132.221504,40.4736328 C130.937629,41.2904338 129.454726,41.6988281 127.772751,41.6988281 C125.234859,41.6988281 123.184671,40.7899017 121.622126,38.9720215 C120.059581,37.1541413 119.27832,34.701285 119.27832,31.6133789 L119.27832,29.372168 C119.27832,27.3899315 119.629141,25.6343338 120.330793,24.1053223 C121.032446,22.5763107 122.025194,21.4009318 123.309069,20.5791504 C124.592944,19.7573689 126.07087,19.3464844 127.742893,19.3464844 C129.414916,19.3464844 130.890355,19.7498983 132.169253,20.5567383 C133.448151,21.3635783 134.435924,22.5040942 135.1326,23.9783203 C135.829276,25.4525464 136.192538,27.1608301 136.222395,29.1032227 L136.222395,31.7030273 Z M134.386165,29.3422852 C134.386165,26.7225455 133.793999,24.6706129 132.60965,23.1864258 C131.4253,21.7022387 129.803064,20.9601562 127.742893,20.9601562 C125.722532,20.9601562 124.112737,21.7047289 122.913458,23.1938965 C121.71418,24.6830641 121.11455,26.762389 121.11455,29.4319336 L121.11455,31.7030273 C121.11455,34.2829231 121.711692,36.327385 122.905994,37.8364746 C124.100296,39.3455642 125.722532,40.1000977 127.772751,40.1000977 C129.852827,40.1000977 131.475063,39.355525 132.639507,37.8663574 C133.803952,36.3771898 134.386165,34.3028453 134.386165,31.6432617 L134.386165,29.3422852 Z M162.727172,34.6166016 C162.478359,36.9076286 161.659777,38.6607361 160.271401,39.8759766 C158.883024,41.091217 157.034372,41.6988281 154.725388,41.6988281 C153.11308,41.6988281 151.687404,41.2954142 150.448315,40.4885742 C149.209227,39.6817342 148.251312,38.5387281 147.57454,37.0595215 C146.897769,35.5803149 146.554413,33.8894626 146.54446,31.9869141 L146.54446,29.1629883 C146.54446,27.2305567 146.882841,25.5172926 147.559612,24.0231445 C148.236383,22.5289964 149.209227,21.3760294 150.478173,20.564209 C151.747119,19.7523885 153.207629,19.3464844 154.859747,19.3464844 C157.188636,19.3464844 159.027335,19.9765074 160.375902,21.2365723 C161.724468,22.4966372 162.508217,24.2372936 162.727172,26.4585937 L160.876013,26.4585937 C160.418197,22.7630675 158.412795,20.915332 154.859747,20.915332 C152.889148,20.915332 151.319162,21.652434 150.149741,23.1266602 C148.980321,24.6008863 148.395619,26.6378776 148.395619,29.2376953 L148.395619,31.8972656 C148.395619,34.4074344 148.965392,36.4095628 150.104955,37.9037109 C151.244518,39.397859 152.784647,40.1449219 154.725388,40.1449219 C156.646224,40.1449219 158.094294,39.6842331 159.06964,38.7628418 C160.044987,37.8414505 160.647105,36.4593842 160.876013,34.6166016 L162.727172,34.6166016 Z M187.992866,21.2141602 L180.543445,21.2141602 L180.543445,41.4 L178.707214,41.4 L178.707214,21.2141602 L171.272721,21.2141602 L171.272721,19.6453125 L187.992866,19.6453125 L187.992866,21.2141602 Z M209.989175,30.9708984 L199.82273,30.9708984 L199.82273,39.8460937 L211.511903,39.8460937 L211.511903,41.4 L197.9865,41.4 L197.9865,19.6453125 L211.437259,19.6453125 L211.437259,21.2141602 L199.82273,21.2141602 L199.82273,29.4169922 L209.989175,29.4169922 L209.989175,30.9708984 Z M223.714984,40.4460937 L234.44872,40.4460937 L234.44872,42 L221.863825,42 L221.863825,20.2453125 L223.714984,20.2453125 L223.714984,40.4460937 Z" id="PolyCoctel" fill="#FFFFFF"></path>
                    <g id="1459548572_Streamline-89" transform="translate(62.946429, 0.000000)">
                        <g id="Expanded">
                            <g id="Group">
                                <path d="M1.39077122,7.94035477 L1.1192602,7.94035477 C0.746092687,7.94035477 0.408025085,8.16620737 0.265778061,8.51381591 C0.122607355,8.86142445 0.202044005,9.26108132 0.466217049,9.52689961 L15.2451286,24.397853 C15.4252466,24.5790928 15.6617092,24.6701774 15.8981718,24.6701774 C16.1346344,24.6701774 16.3710969,24.5790928 16.5512149,24.397853 L31.3301265,9.52689961 C31.5942995,9.26108132 31.6737362,8.86142445 31.5305655,8.51381591 C31.3883185,8.16620737 31.0502509,7.94035477 30.6770833,7.94035477 L30.5239288,7.94035477 L15.8981718,22.4265223 L1.39077122,7.94035477 Z" id="Shape" fill="#FFFFFF"></path>
                                <path d="M15.8737245,41.4 C15.3764477,41.4 14.9744898,40.9845427 14.9744898,40.4705654 L14.9744898,23.7407428 C14.9744898,23.2267655 15.3764477,22.8113082 15.8737245,22.8113082 C16.3710013,22.8113082 16.7729592,23.2267655 16.7729592,23.7407428 L16.7729592,40.4705654 C16.7729592,40.9845427 16.3710013,41.4 15.8737245,41.4 L15.8737245,41.4 Z" id="Shape" fill="#FFFFFF"></path>
                                <path d="M77.9470844,17.092587 L73.1051435,12.2204909 C72.232264,11.3431046 71.0730432,10.8588692 69.839004,10.8588692 L64.744898,10.8588692 L64.744898,9 L69.839004,9 C71.5662893,9 73.1901222,9.67755782 74.4112298,10.9062703 L79.2531707,15.7783665 L77.9470844,17.092587 L77.9470844,17.092587 Z" id="Shape" fill="#FFFFFF" transform="translate(71.999034, 13.046293) scale(-1, 1) translate(-71.999034, -13.046293) "></path>
                                <path d="M33.196216,13.5169623 C32.0037426,13.5169623 30.8389796,13.1879425 29.8266241,12.5661507 L30.7900244,10.9796059 C31.5123437,11.4229462 32.3436575,11.6580931 33.196216,11.6580931 C35.7428072,11.6580931 37.8146259,9.57337134 37.8146259,7.01092018 C37.8146259,4.44846901 35.7428072,2.36374723 33.196216,2.36374723 C30.6496248,2.36374723 28.5778061,4.44846901 28.5778061,7.01092018 C28.5778061,7.54162733 28.6655559,8.0621107 28.8382844,8.55471103 L27.0971439,9.17371447 C26.8542156,8.48221513 26.7304422,7.75446785 26.7304422,7.01092018 C26.7304422,3.4242321 29.6317273,0.504878049 33.196216,0.504878049 C36.7607047,0.504878049 39.6619898,3.4242321 39.6619898,7.01092018 C39.6619898,10.5976083 36.7607047,13.5169623 33.196216,13.5169623 L33.196216,13.5169623 Z" id="Shape" fill="#AD3074" transform="translate(33.196216, 7.010920) rotate(-3.000000) translate(-33.196216, -7.010920) "></path>
                            </g>
                        </g>
                    </g>
                </g>
            </g>
        </g>
    </g>
</svg>